<?xml version="1.0" standalone="no"?><!DOCTYPE svg PUBLIC "-//W3C//DTD SVG 1.1//EN" "http://www.w3.org/Graphics/SVG/1.1/DTD/svg11.dtd"><svg t="1613711125693" class="icon" viewBox="0 0 1088 1024" version="1.1" xmlns="http://www.w3.org/2000/svg" p-id="6492" xmlns:xlink="http://www.w3.org/1999/xlink" width="212.5" height="200"><defs><style type="text/css"></style></defs><path d="M903.68 9.92a57.344 57.344 0 0 1 57.28 57.28v378.112l30.976-12.16a58.24 58.24 0 0 1 20.352-3.968l7.168 0.448a57.408 57.408 0 0 1 50.048 56.96V915.2a57.344 57.344 0 0 1-57.28 57.344H71.616a57.408 57.408 0 0 1-57.344-57.344V486.784a57.28 57.28 0 0 1 78.08-53.44l29.824 11.968V67.2c0.064-31.616 25.728-57.216 57.344-57.28zM94.4 511.68a7.552 7.552 0 0 0-7.552 7.616v373.376c0 4.16 3.328 7.488 7.488 7.552h903.04l0.32-381.184a7.616 7.616 0 0 0-10.24-6.784L576.64 670.4a91.52 91.52 0 0 1-65.088 0l-414.592-158.08a6.784 6.784 0 0 0-2.624-0.64z m786.432-430.016H201.728a7.488 7.488 0 0 0-7.488 7.552L194.432 467.2a7.68 7.68 0 0 0 4.864 6.784l341.248 130.56a7.04 7.04 0 0 0 2.624 0.64l1.408-0.192 1.28-0.384 337.664-130.368a7.68 7.68 0 0 0 4.8-6.848V89.216a7.552 7.552 0 0 0-7.552-7.552zM529.6 356.736a35.904 35.904 0 1 1-1.408 71.872H377.408a35.904 35.904 0 1 1 1.408-71.872z m176.64-165.632a35.904 35.904 0 1 1 0 71.808H378.88a35.904 35.904 0 1 1 0-71.808z" p-id="6493" fill="#30CB88"></path></svg>