<?xml version="1.0" standalone="no"?><!DOCTYPE svg PUBLIC "-//W3C//DTD SVG 1.1//EN" "http://www.w3.org/Graphics/SVG/1.1/DTD/svg11.dtd"><svg class="icon" width="200px" height="200.00px" viewBox="0 0 1024 1024" version="1.1" xmlns="http://www.w3.org/2000/svg"><path fill="#ffffff" d="M456.855952 639.893574c24.812448-67.382825-24.08267-147.901651-108.493645-178.917211L151.808797 388.606723c-19.339114-7.05452-36.245635-10.46015-50.111415-10.46015-47.070673 0-61.544601 38.313339-30.772301 100.466089l23.352893 46.949044c40.137784 80.640456 127.954389 166.875876 195.215583 191.688324 14.717187 5.473334 29.920893 8.027557 44.759711 8.027556 53.030526 0 103.26357-32.718375 122.602684-85.384012zM384.97283 458.178881c11.919705 4.378667 24.08267 6.446371 36.488895 6.446371 57.652453 0 116.886091-45.489488 142.428316-115.061646l72.49127-196.796769c22.623114-61.058083 7.541038-97.060458-32.961634-97.060459-15.446965 0-34.786079 5.230075-57.044305 16.298373l-46.949044 23.352892c-80.640456 40.137784-166.875876 127.954389-191.688324 195.215584-24.812448 67.504454 9.973631 142.793206 77.234826 167.605654zM953.104913 547.698301l-23.352893-46.949043C889.614237 419.987172 801.797631 333.873382 734.536437 308.939304c-14.838817-5.594964-29.920893-8.027557-44.88134-8.027557-53.152156 0-103.3852 32.718375-122.724314 85.384013-24.812448 67.382825 24.08267 147.901651 108.493645 178.917211l196.796769 72.491269c19.339114 7.05452 36.124005 10.46015 50.111415 10.46015 46.949044 0 61.544601-38.313339 30.772301-100.466089zM638.813904 568.253712c-11.919705-4.500297-24.08267-6.568001-36.488894-6.568001-57.652453 0-116.886091 45.489488-142.428317 115.061646L387.405423 873.300867c-22.501485 61.058083-7.541038 97.060458 33.083264 97.060459 15.446965 0 34.786079-5.230075 57.044305-16.298373l46.949044-23.352892c80.640456-40.137784 166.875876-127.954389 191.688324-195.215584 24.812448-67.139565-9.973631-142.428317-77.356456-167.240765z"  /></svg>