<?xml version="1.0" standalone="no"?><!DOCTYPE svg PUBLIC "-//W3C//DTD SVG 1.1//EN" "http://www.w3.org/Graphics/SVG/1.1/DTD/svg11.dtd"><svg class="icon" width="200px" height="200.00px" viewBox="0 0 1024 1024" version="1.1" xmlns="http://www.w3.org/2000/svg"><path fill="#ffffff" d="M875.2 504c-24-23.2-56-34.4-96-34.4-44 0-80 13.6-106.4 40-26.4 26.4-40 64-40 111.2v1.6h72v-1.6c0-27.2 4.8-48 15.2-61.6 12-16.8 29.6-24.8 54.4-24.8 19.2 0 35.2 5.6 46.4 16.8 10.4 12 16 28.8 16 48 0 15.2-5.6 30.4-15.2 43.2l-7.2 8.8c-37.6 35.2-62.4 63.2-71.2 80.8-8 16-12 36-12 62.4v11.2h72.8v-11.2c0-14.4 3.2-27.2 8.8-40.8 5.6-11.2 14.4-22.4 23.2-30.4 28-25.6 46.4-44 51.2-50.4 15.2-21.6 22.4-48 22.4-79.2 2.4-36.8-9.6-67.2-34.4-89.6zM768.8 834.4c-13.6 0-25.6 4.8-33.6 14.4-9.6 9.6-14.4 20.8-14.4 35.2 0 15.2 4.8 27.2 14.4 35.2 8.8 9.6 20 14.4 33.6 14.4 13.6 0 25.6-4.8 35.2-14.4 8.8-9.6 13.6-21.6 13.6-36 0-13.6-4.8-26.4-13.6-35.2-8.8-8.8-20.8-13.6-35.2-13.6zM183.2 765.6V257.6c0-70.4 58.4-128 129.6-128h394.4c72 0 129.6 57.6 129.6 128v1.6h70.4v-1.6c0-52.8-20.8-102.4-59.2-140.8-38.4-37.6-88.8-58.4-141.6-58.4H312.8c-54.4 0-104.8 20.8-141.6 58.4-38.4 37.6-59.2 87.2-59.2 140.8v508c0 52.8 20.8 102.4 59.2 140.8 38.4 37.6 88.8 58.4 141.6 58.4h80v-70.4h-79.2c-72-0.8-130.4-58.4-130.4-128.8zM459.2 636H287.2c-20 0-36.8 16.8-36.8 37.6v7.2c0 20 16.8 36.8 36.8 36.8h172.8c20 0 36.8-16.8 36.8-36.8v-7.2c0-21.6-16.8-37.6-37.6-37.6zM660.8 328v-7.2c0-20-16.8-36.8-37.6-36.8h-336c-20 0-36.8 16.8-36.8 36.8v7.2c0 20 16.8 36.8 36.8 36.8h336c20.8 0.8 37.6-16 37.6-36.8zM537.6 451.2H287.2c-20 0-36.8 16.8-36.8 36.8v7.2c0 20 16.8 37.6 36.8 37.6h250.4c20 0 37.6-16.8 37.6-37.6V488c0-20-16.8-36.8-37.6-36.8z" /></svg>