<?xml version="1.0" standalone="no"?><!DOCTYPE svg PUBLIC "-//W3C//DTD SVG 1.1//EN" "http://www.w3.org/Graphics/SVG/1.1/DTD/svg11.dtd"><svg class="icon" width="200px" height="200.00px" viewBox="0 0 1024 1024" version="1.1" xmlns="http://www.w3.org/2000/svg"><path fill="#ffffff" d="M572.53888 218.39872l63.03744-63.03744a40.96 40.96 0 0 1 57.93792 0l162.7136 162.7136a40.96 40.96 0 0 1 0 57.93792l-63.03744 63.03744a40.96 40.96 0 0 1-57.91744 0l-162.73408-162.73408a40.96 40.96 0 0 1 0-57.91744z m-97.77152 97.73056L155.36128 635.53536A40.96 40.96 0 0 0 143.36 664.49408v162.77504a40.96 40.96 0 0 0 40.96 40.96h162.77504a40.96 40.96 0 0 0 28.95872-12.00128l319.40608-319.3856a40.96 40.96 0 0 0 0-57.93792l-162.77504-162.77504a40.96 40.96 0 0 0-57.91744 0z m81.75616 476.93824h244.1216a37.5808 37.5808 0 1 1 0 75.1616h-244.1216a37.5808 37.5808 0 1 1 0-75.1616z m131.4816-131.4816h112.64a37.5808 37.5808 0 1 1 0 75.1616h-112.64a37.5808 37.5808 0 1 1 0-75.1616z" /></svg>