<?xml version="1.0" standalone="no"?><!DOCTYPE svg PUBLIC "-//W3C//DTD SVG 1.1//EN" "http://www.w3.org/Graphics/SVG/1.1/DTD/svg11.dtd"><svg t="1613563169372" class="icon" viewBox="0 0 1024 1024" version="1.1" xmlns="http://www.w3.org/2000/svg" p-id="29503" xmlns:xlink="http://www.w3.org/1999/xlink" width="200" height="200"><defs><style type="text/css"></style></defs><path d="M512 512m-512 0a512 512 0 1 0 1024 0 512 512 0 1 0-1024 0Z" fill="#FD9B32" p-id="29504"></path><path d="M409.6 456.533333v-34.133333l170.666667-8.533333v371.2c0 21.333333 12.8 29.866667 34.133333 29.866666h46.933333v38.4H418.133333v-34.133333h46.933334c25.6 0 38.4-12.8 38.4-38.4V512c0-34.133333-21.333333-51.2-59.733334-51.2h-34.133333z m115.2-290.133333c12.8 0 25.6 4.266667 38.4 17.066667s17.066667 21.333333 17.066667 38.4c0 12.8-4.266667 25.6-12.8 34.133333-8.533333 8.533333-21.333333 12.8-38.4 12.8-12.8 0-25.6-4.266667-38.4-12.8-8.533333-8.533333-12.8-21.333333-12.8-34.133333s4.266667-25.6 17.066666-38.4c4.266667-12.8 17.066667-17.066667 29.866667-17.066667z" fill="#FFFFFF" p-id="29505"></path></svg>