<?xml version="1.0" standalone="no"?><!DOCTYPE svg PUBLIC "-//W3C//DTD SVG 1.1//EN" "http://www.w3.org/Graphics/SVG/1.1/DTD/svg11.dtd"><svg class="icon" width="200px" height="147.34px" viewBox="0 0 1390 1024" version="1.1" xmlns="http://www.w3.org/2000/svg"><path fill="#999999" d="M1365.42948 286.33452L707.972854 2.617027a31.571571 31.571571 0 0 0-25.171927 0L23.211087 286.33452a42.664285 42.664285 0 0 0 0 75.942426L682.800927 645.994439a31.144928 31.144928 0 0 0 25.171927 0L1220.370912 426.700016v225.694065a97.274569 97.274569 0 0 0 0 165.964067V896.007146h67.40957v-78.928926a97.274569 97.274569 0 0 0 0-165.964067v-255.985708L1365.42948 362.276946a42.664285 42.664285 0 0 0 0-75.942426z m-670.255911 416.403417a74.235855 74.235855 0 0 1-29.438356-5.973L256.158081 520.134799v244.039708C256.158081 963.843359 554.808073 1024 648.242856 1024h93.861426c70.39607 0 393.364704-60.156641 393.364704-259.825493v-244.039708L725.465211 696.764937a73.809212 73.809212 0 0 1-29.438356 5.973z" /></svg>