<?xml version="1.0" standalone="no"?><!DOCTYPE svg PUBLIC "-//W3C//DTD SVG 1.1//EN" "http://www.w3.org/Graphics/SVG/1.1/DTD/svg11.dtd"><svg class="icon" width="200px" height="199.03px" viewBox="0 0 1029 1024" version="1.1" xmlns="http://www.w3.org/2000/svg"><path fill="#30CB88" d="M916.9180345 728.80210727c-11.99778523-11.99778523-29.99077529-11.99778523-47.98376538-1e-8l-185.90298625 203.91809931-69.49423857-93.01786057a29.12799694 29.12799694 0 0 0-10.18373734-8.56141845 28.36845641 28.36845641 0 0 0-24.26104028-1.1429978 29.17224141 29.17224141 0 0 0-6.71050014 3.74608181l-0.11061267 0.08111562a29.135371 29.135371 0 0 0-6.94647437 7.37417687c-8.11159369 11.68806947-6.91697731 26.97473695 3.68708845 37.60829904l37.6672924 50.22551503 56.72216467 75.91714595a29.49670533 29.49670533 0 0 0 36.98886898 8.49505099c9.2029722-3.60597209 15.27191932-11.40047667 18.32482807-14.46075952 0.17698013-0.17698013 0.34658617-0.35396026 0.51619221-0.54568925l197.68692022-221.65299292c11.99778523-11.96091409 11.99778523-35.95648383-1e-8-47.9837661z"  /><path fill="#30CB88" d="M911.34497467 682.72236301c16.257198-16.257198 16.257198-48.76160101 0-65.01879901-40.637998-48.76160101-89.39959899-81.275996-138.171191-97.53319301 65.018798-56.895196 105.656796-138.17119199 105.65679599-227.57078998C878.84057167 130.03759701 748.79298267 0 586.24099067 0S293.64141066 130.03759701 293.64141066 292.59958099c0 89.39959899 40.637998 178.80919 113.79039101 227.57079-170.68558699 65.018798-300.763152 243.80800401-300.763152 447.01797802q0 48.76160101 48.761601 48.76159998t48.7616-48.7616c0-211.32358502 170.68558699-390.122782 381.99918-390.12278198 97.533194 0 186.93279199 40.637998 260.085185 105.656796 16.31715 16.257198 48.81156099 16.257198 65.068759 0zM594.36459367 479.53237301c-105.656796 0-195.06638699-89.39959899-195.066387-195.06638701S488.70779767 89.39959902 594.36459367 89.39959902s195.06638699 89.39959899 195.066387 195.06638698S700.03138267 479.53237301 594.36459367 479.53237301z"  /></svg>