<?xml version="1.0" standalone="no"?><!DOCTYPE svg PUBLIC "-//W3C//DTD SVG 1.1//EN" "http://www.w3.org/Graphics/SVG/1.1/DTD/svg11.dtd"><svg t="1621782353470" class="icon" viewBox="0 0 1024 1024" version="1.1" xmlns="http://www.w3.org/2000/svg" p-id="5065" xmlns:xlink="http://www.w3.org/1999/xlink" width="200" height="200"><defs><style type="text/css"></style></defs><path d="M511.616 995.56373333c-65.21173333 0-128.4864-12.77866667-188.06506667-37.9776-57.53386667-24.336-109.20106667-59.168-153.5616-103.53066666-44.36266667-44.36053333-79.19573333-96.02666667-103.53066666-153.56053334-25.2-59.57973333-37.9776-122.8544-37.9776-188.06613333 0-65.21173333 12.77866667-128.48533333 37.97866666-188.064 24.33386667-57.53493333 59.16693333-109.20106667 103.5296-153.56266667 44.36053333-44.3616 96.02773333-79.1936 153.5616-103.52853333 59.57866667-25.2 122.85333333-37.9776 188.064-37.9776s128.4864 12.7776 188.06613334 37.9776c57.536 24.33493333 109.2 59.168 153.56266666 103.52853333s79.19573333 96.02773333 103.52853334 153.5616c25.2 59.57973333 37.9776 122.85333333 37.9776 188.06506667 0 65.21386667-12.77866667 128.48746667-37.9776 188.06613333-24.33386667 57.53386667-59.16693333 109.2-103.52853334 153.5616-44.36266667 44.36266667-96.02773333 79.19466667-153.56266666 103.5296-59.57866667 25.19893333-122.85226667 37.9776-188.06506667 37.9776z m0-916.064c-238.71786667 0-432.92906667 194.2112-432.92906667 432.928 0 238.71893333 194.21013333 432.92906667 432.928 432.92906667S944.54613333 751.14666667 944.54613333 512.4288c0-238.7168-194.21013333-432.928-432.92906666-432.928z" fill="#31c280" p-id="5066"></path><path d="M332.7936 824.9088l48.65706667-386.81493333 310.8288-237.248-50.94506667 386.58346666-308.5408 237.47946667z m95.84426667-359.67253333L397.64266667 711.64053333 594.2688 560.29866667l32.45333333-246.25813334L428.63786667 465.23733333z" fill="#31c280" p-id="5067"></path><path d="M471.88586667 512.4288a39.73013333 39.73013333 0 1 0 79.46026666 0 39.73013333 39.73013333 0 1 0-79.46026666 0z" fill="#31c280" p-id="5068"></path></svg>