<?xml version="1.0" standalone="no"?><!DOCTYPE svg PUBLIC "-//W3C//DTD SVG 1.1//EN" "http://www.w3.org/Graphics/SVG/1.1/DTD/svg11.dtd"><svg t="1621782231495" class="icon" viewBox="0 0 1024 1024" version="1.1" xmlns="http://www.w3.org/2000/svg" p-id="2421" xmlns:xlink="http://www.w3.org/1999/xlink" width="200" height="200"><defs><style type="text/css"></style></defs><path d="M870.4 204.8H153.6a102.4 102.4 0 0 0-102.4 102.4v563.2a102.4 102.4 0 0 0 102.4 102.4h716.8a102.4 102.4 0 0 0 102.4-102.4V307.2a102.4 102.4 0 0 0-102.4-102.4z m-204.8 0z m204.8 665.6H153.6V307.2h716.8z" fill="#30CB88" p-id="2422"></path><path d="M307.2 438.3232m51.2 0l307.2 0q51.2 0 51.2 51.2l0 0q0 51.2-51.2 51.2l-307.2 0q-51.2 0-51.2-51.2l0 0q0-51.2 51.2-51.2Z" fill="#30CB88" p-id="2423"></path><path d="M307.2 643.1232m51.2 0l307.2 0q51.2 0 51.2 51.2l0 0q0 51.2-51.2 51.2l-307.2 0q-51.2 0-51.2-51.2l0 0q0-51.2 51.2-51.2Z" fill="#30CB88" p-id="2424"></path><path d="M665.6 51.2m25.6 0l51.2 0q25.6 0 25.6 25.6l0 153.6q0 25.6-25.6 25.6l-51.2 0q-25.6 0-25.6-25.6l0-153.6q0-25.6 25.6-25.6Z" fill="#30CB88" p-id="2425"></path><path d="M256 51.2m25.6 0l51.2 0q25.6 0 25.6 25.6l0 153.6q0 25.6-25.6 25.6l-51.2 0q-25.6 0-25.6-25.6l0-153.6q0-25.6 25.6-25.6Z" fill="#30CB88" p-id="2426"></path></svg>