<?xml version="1.0" standalone="no"?><!DOCTYPE svg PUBLIC "-//W3C//DTD SVG 1.1//EN" "http://www.w3.org/Graphics/SVG/1.1/DTD/svg11.dtd"><svg t="1622034525201" class="icon" viewBox="0 0 1024 1024" version="1.1" xmlns="http://www.w3.org/2000/svg" p-id="2587" xmlns:xlink="http://www.w3.org/1999/xlink" width="200" height="200"><defs><style type="text/css"></style></defs><path d="M495.92512 568.576c-8.533333 1.92-20.992 3.925333-37.461333 5.973333-184.405333 21.333333-324.437333 167.381333-341.461334 354.048-0.298667 3.413333-0.597333 7.509333-0.853333 12.373334a27.605333 27.605333 0 0 1-27.52 26.154666 25.429333 25.429333 0 0 1-25.429333-26.624l1.408-30.293333c22.272-175.616 143.274667-322.773333 307.2-376.448-86.528-48-144.042667-140.714667-144.042667-249.301333C227.76512 125.141333 351.626453 0 509.10912 0s281.301333 125.141333 281.301333 284.458667c0 159.274667-123.776 284.416-281.301333 284.416-4.437333 0-8.832-0.085333-13.226667-0.298667z m294.485333 173.738667v-271.829334a15.36 15.36 0 0 1 15.36-15.36h40.917334v287.146667C911.54112 755.2 959.199787 811.946667 959.199787 881.834667 959.199787 961.408 897.33312 1024 818.527787 1024c-78.762667 0-140.629333-62.592-140.629334-142.208 0-69.888 47.616-126.634667 112.512-139.52zM734.13312 284.458667c0-125.184-101.248-227.584-225.024-227.584s-225.066667 102.4-225.066667 227.584C284.042453 409.6 385.33312 512 509.10912 512c123.733333 0 225.024-102.4 225.024-227.541333z m84.394667 682.666666c45.013333 0 84.394667-39.850667 84.394666-85.333333 0-45.525333-39.381333-85.333333-84.394666-85.333333s-84.394667 39.808-84.394667 85.333333c0 45.482667 39.381333 85.333333 84.394667 85.333333z m18.005333-512h94.208a28.458667 28.458667 0 1 1 0 56.874667h-94.208v-56.874667z m0 113.749334h94.208a28.458667 28.458667 0 0 1 0 56.917333h-94.208v-56.917333z" fill="#30CB88" p-id="2588"></path></svg>