<?xml version="1.0" standalone="no"?><!DOCTYPE svg PUBLIC "-//W3C//DTD SVG 1.1//EN" "http://www.w3.org/Graphics/SVG/1.1/DTD/svg11.dtd"><svg t="1625837832853" class="icon" viewBox="0 0 1024 1024" version="1.1" xmlns="http://www.w3.org/2000/svg" p-id="2493" xmlns:xlink="http://www.w3.org/1999/xlink" width="200" height="200"><defs><style type="text/css"></style></defs><path d="M951.453924 976.26834c-54.083407-123.492927-155.85722-216.535482-278.278998-260.604317 37.472506-18.100489 71.538555-42.371499 101.346532-72.178003 34.278216-34.279689 61.317709-74.308512 80.057646-119.016794 19.372017-46.203764 29.380696-95.170118 29.380697-145.633427 0-50.457416-9.795039-99.431137-29.380697-145.629008-18.953577-44.500535-45.77943-84.529358-80.057646-119.016794-34.279689-34.278216-74.308512-61.323603-118.803154-80.056173-46.203764-19.585658-95.171591-29.38217-145.6349-29.382169-50.457416 0-99.42377 9.796512-145.629008 29.382169-44.500535 18.94621-84.523465 45.777957-119.015321 80.056173-34.491856 34.273796-61.317709 74.302619-80.057646 119.016794-19.797824 46.411511-29.594337 95.383758-29.594336 145.841174 0 50.463309 9.796512 99.431137 29.38217 145.634901 18.952104 44.494642 45.777957 84.523465 80.057646 119.015321 29.806504 29.807977 63.872553 53.865347 101.346532 72.179476-122.429145 43.855194-224.195591 136.684109-278.278999 260.390677-7.240196 16.817174 0.425807 36.190665 17.035235 43.43086 16.605007 7.240196 36.195085-0.425807 43.43086-17.030814 66.215229-151.597675 215.682394-249.530383 381.1107-249.530383 165.432725 0 314.899891 97.932708 381.110699 249.530383 5.536967 12.345462 17.461042 19.799298 30.238204 19.799297 4.465819 0 8.939004-0.853088 13.197076-2.768483 16.610901-7.453836 24.27101-26.825853 17.036708-43.43086zM509.871237 70.754717c169.904437 0 308.085502 138.181065 308.085502 308.081082 0 2.554843 0 5.323327-0.212167 7.878169-90.060432 5.536967-162.665715-78.774331-183.954602-106.669859-8.09181-10.642233-21.08114-17.030814-34.491856-16.605007-13.628777 0.21364-26.40594 7.028029-34.491856 18.096069-43.862561 61.529876-95.171591 96.021732-152.875096 103.049761-87.079781 10.434486-168.834763-43.009473-203.538786-69.623159 29.592863-139.240426 153.507177-244.207056 301.478861-244.207056zM202.003795 390.973514a510.405801 510.405801 0 0 0 41.306244 23.417922c61.104069 30.447424 120.292742 42.371499 176.500766 35.770751 68.557905-8.09181 129.23764-44.074728 180.764731-106.671332 17.882429 20.017358 43.21722 44.927816 74.728426 66.003062 26.400046 17.674682 53.869767 30.233784 80.90926 37.048172a211.85455 211.85455 0 0 0 52.586452 6.600748c-33.214435 134.3488-154.784599 233.992104-299.142078 233.992104-165.640472 0-301.47886-131.792483-307.653801-296.161427z m0 0" p-id="2494" fill="#30CB88"></path></svg>