<?xml version="1.0" standalone="no"?><!DOCTYPE svg PUBLIC "-//W3C//DTD SVG 1.1//EN" "http://www.w3.org/Graphics/SVG/1.1/DTD/svg11.dtd"><svg class="icon" width="200px" height="149.93px" viewBox="0 0 1366 1024" version="1.1" xmlns="http://www.w3.org/2000/svg"><path fill="#30CB88" d="M851.213653 369.39776c0-12.474027-10.123947-22.597973-22.597973-22.597973s-22.597973 10.123947-22.597973 22.597973c0 62.324053-50.664107 112.98816-112.98816 112.98816s-112.986453-50.664107-112.986453-112.98816c0-12.474027-10.123947-22.597973-22.597973-22.597973s-22.597973 10.123947-22.597973 22.597973c0 87.226027 70.956373 158.1824 158.1824 158.1824C780.253867 527.58016 851.213653 456.625493 851.213653 369.39776zM693.031253 30.436693c-186.92608 0-338.962773 152.034987-338.962773 338.962773 0 149.188267 99.971413 281.698987 241.07008 324.40832l-72.809813 208.16896c-4.15744 11.794773 2.07872 24.676693 13.830827 28.788053 2.484907 0.858453 5.015893 1.266347 7.456427 1.266347 9.355947 0 18.077013-5.829973 21.331627-15.13984l80.943787-231.30624c2.169173-6.101333 1.58208-12.78976-1.58208-18.440533-3.11808-5.649067-8.58624-9.67168-14.86848-11.072853-133.37088-29.467307-230.178133-150.04672-230.178133-286.670507 0-161.978027 131.7888-293.766827 293.766827-293.766827s293.766827 131.7888 293.766827 293.766827c0 12.158293-0.768 24.087893-2.169173 35.884373-14.416213 118.0928-98.071893 215.038293-213.092693 246.944427-6.01088 1.672533-11.072853 5.73952-13.965653 11.298133-2.8928 5.51424-3.34336 11.977387-1.31072 17.897813l82.435413 235.465387c3.254613 9.309867 11.931307 15.13984 21.287253 15.13984 2.484907 0 5.015893-0.406187 7.456427-1.266347 11.794773-4.113067 18.03264-16.99328 13.8752-28.788053L806.65088 688.520533c120.76032-42.799787 207.173973-149.459627 222.810453-277.766827 1.672533-13.559467 2.530987-27.342507 2.530987-41.352533C1031.99232 182.473387 879.957333 30.436693 693.031253 30.436693z" /></svg>