<?xml version="1.0" standalone="no"?><!DOCTYPE svg PUBLIC "-//W3C//DTD SVG 1.1//EN" "http://www.w3.org/Graphics/SVG/1.1/DTD/svg11.dtd"><svg t="1613715898691" class="icon" viewBox="0 0 1024 1024" version="1.1" xmlns="http://www.w3.org/2000/svg" p-id="10278" xmlns:xlink="http://www.w3.org/1999/xlink" width="200" height="200"><defs><style type="text/css"></style></defs><path d="M902.707516 759.199055a299.850206 299.850206 0 0 0-49.733704-81.199347c-36.583197-42.925648-103.459327-97.635691-216.844724-120.287597a311.295885 311.295885 0 0 0 76.84211-96.003517c26.761504-51.55519 40.337707-90.582041 40.337707-157.298536 0-65.089437-24.190959-125.298727-68.113308-169.621189-44.656059-45.125757-106.20588-69.972655-173.327603-69.972654-67.1207 0-128.60503 24.846898-173.326581 69.972654-43.953048 44.37465-68.113307 104.614639-68.113307 169.621189 0 143.717216 58.314127 206.278063 115.01757 253.498528-112.349811 21.936615-178.768523 76.642564-215.167525 119.913067-47.63388 56.594973-64.531735 116.590392-64.531735 150.779052 0 42.305525 34.901905 67.481927 64.191998 81.216743 26.630521 12.495592 63.387679 22.892383 109.266589 30.91408 77.880765 13.621229 171.292248 18.453281 232.794997 18.453281 61.501726 0 154.866137-4.879124 232.793974-18.453281 45.87891-8.004301 82.618673-18.406209 109.266589-30.91408 29.303396-13.735839 64.191998-39.055504 64.191998-81.216743-0.160659-20.063965-5.614881-44.714388-15.545045-69.40165zM726.642568 891.882983c-74.264401 11.225669-159.538553 15.214517-214.70806 15.214517s-140.443659-3.988848-214.70806-15.214517c-104.642269-15.799848-130.527822-36.807301-135.478577-41.965787-7.16212-21.721721-2.047636-60.501956 25.399483-106.33891 31.692816-52.933583 71.514777-99.704816 175.816285-128.553865 59.777455-16.533558 84.653005-37.426401 86.068237-43.772946 9.199523-39.97955-20.741393-52.397371-29.823235-58.694796-72.946382-50.495044-90.433662-107.647719-90.433662-217.714534 0-47.058782 26.927279-96.806813 58.069556-128.275525 31.726585-32.039717 76.138074-49.681516 125.090997-49.681516s93.376691 17.641799 125.0736 49.66412c31.145347 31.472805 56.42715 66.001203 56.42715 113.059985 0 135.320988-34.189683 201.980177-89.163739 231.68164-9.343809 5.04183-52.095495 22.778796-43.59796 60.384275 5.01727 22.193465 64.387449 35.636638 100.201119 43.349297 83.024925 17.898649 159.538553 94.379531 177.982624 131.626853 23.671119 47.792493 22.090111 82.71384 23.263843 103.265922-4.947685 5.176906-30.849612 26.165939-135.479601 41.965787z m0 0" fill="#30CB88" p-id="10279"></path><path d="M500.287237 851.989391l-48.367591-33.428343a20.48045 20.48045 0 0 1-8.182356-21.989827l41.574884-160.315243a12.287861 12.287861 0 0 0-1.650593-9.869788l-12.342096-18.632359a12.287861 12.287861 0 0 1-2.028192-7.40976l0.610913-11.998265c0.322341-6.330172 5.412266-11.380188 11.747555-11.654435 21.660322-0.938372 32.933063-0.938372 54.593386 0 6.335289 0.274246 11.425214 5.324262 11.747555 11.654435l0.610914 11.998265a12.280698 12.280698 0 0 1-2.028193 7.40976l-12.214183 18.438954a12.286838 12.286838 0 0 0-1.548262 10.240225l46.819329 159.802566a20.48045 20.48045 0 0 1-8.022721 22.613021l-48.022737 33.146934a20.496823 20.496823 0 0 1-23.297612-0.00614z m11.647271 8.049327" fill="#30CB88" p-id="10280"></path></svg>