<?xml version="1.0" standalone="no"?><!DOCTYPE svg PUBLIC "-//W3C//DTD SVG 1.1//EN" "http://www.w3.org/Graphics/SVG/1.1/DTD/svg11.dtd"><svg t="1613715782744" class="icon" viewBox="0 0 1024 1024" version="1.1" xmlns="http://www.w3.org/2000/svg" p-id="8474" xmlns:xlink="http://www.w3.org/1999/xlink" width="200" height="200"><defs><style type="text/css"></style></defs><path d="M177.066667 893.866667c-14.933333 0-25.6-12.8-25.6-25.6 0-89.6 34.133333-174.933333 98.133333-238.933334 34.133333-34.133333 76.8-61.866667 121.6-78.933333-29.866667-19.2-57.6-42.666667-76.8-74.666667-23.466667-36.266667-36.266667-78.933333-36.266667-121.6C260.266667 230.4 362.666667 128 486.4 128c59.733333 0 117.333333 23.466667 160 66.133333s66.133333 100.266667 66.133333 160c0 125.866667-102.4 228.266667-228.266666 228.266667h-8.533334c-72.533333 2.133333-140.8 32-192 83.2-53.333333 53.333333-83.2 125.866667-83.2 202.666667 2.133333 14.933333-10.666667 25.6-23.466666 25.6z m309.333333-362.666667h4.266667c93.866667-2.133333 170.666667-81.066667 170.666666-174.933333 0-96-78.933333-174.933333-174.933333-174.933334-96 0-174.933333 78.933333-174.933333 174.933334 0 93.866667 72.533333 170.666667 166.4 174.933333h8.533333z m0 0" fill="#30CB88" p-id="8475"></path><path d="M704 889.6c-6.4 0-12.8-2.133333-19.2-6.4-4.266667-2.133333-89.6-68.266667-123.733333-123.733333-12.8-19.2-27.733333-42.666667-27.733334-78.933334 0-59.733333 44.8-110.933333 102.4-110.933333 25.6 0 49.066667 10.666667 68.266667 29.866667 19.2-19.2 42.666667-29.866667 68.266667-29.866667 55.466667 0 102.4 49.066667 102.4 110.933333 0 36.266667-14.933333 59.733333-27.733334 78.933334-34.133333 53.333333-119.466667 119.466667-123.733333 123.733333-6.4 4.266667-12.8 6.4-19.2 6.4zM635.733333 618.666667c-29.866667 0-55.466667 27.733333-55.466666 61.866666 0 19.2 8.533333 34.133333 19.2 53.333334 25.6 38.4 85.333333 89.6 104.533333 104.533333 19.2-14.933333 78.933333-66.133333 104.533333-104.533333 10.666667-17.066667 19.2-32 19.2-53.333334 0-34.133333-25.6-61.866667-55.466666-61.866666-21.333333 0-42.666667 14.933333-51.2 36.266666l-4.266667 8.533334h-2.133333c-4.266667 2.133333-8.533333 4.266667-12.8 4.266666-4.266667 0-10.666667-2.133333-12.8-4.266666h-2.133334l-4.266666-8.533334c-6.4-21.333333-25.6-36.266667-46.933334-36.266666z m0 0" fill="#30CB88" p-id="8476"></path></svg>