<?xml version="1.0" standalone="no"?><!DOCTYPE svg PUBLIC "-//W3C//DTD SVG 1.1//EN" "http://www.w3.org/Graphics/SVG/1.1/DTD/svg11.dtd"><svg t="1613540148955" class="icon" viewBox="0 0 1024 1024" version="1.1" xmlns="http://www.w3.org/2000/svg" p-id="23985" xmlns:xlink="http://www.w3.org/1999/xlink" width="200" height="200"><defs><style type="text/css"></style></defs><path d="M298.666667 704h426.666666V1024l-213.333333-113.493333L298.666667 1024v-320z" fill="#E4512A" p-id="23986"></path><path d="M298.666667 597.333333h426.666666v277.333334L298.666667 736V597.333333z" fill="#DD3D13" p-id="23987"></path><path d="M512 128a256 256 0 1 1-256 256 256 256 0 0 1 256-256m0-128a384 384 0 1 0 384 384 384 384 0 0 0-384-384z" fill="#FFCB5F" p-id="23988"></path><path d="M512 384m-256 0a256 256 0 1 0 512 0 256 256 0 1 0-512 0Z" fill="#F0B33B" p-id="23989"></path><path d="M531.2 219.733333v304.64H484.693333V275.2a165.973333 165.973333 0 0 1-69.973333 38.4V267.52a177.92 177.92 0 0 0 42.666667-17.92 177.493333 177.493333 0 0 0 38.4-30.293333z" fill="#FFFFFF" p-id="23990"></path></svg>