<?xml version="1.0" standalone="no"?><!DOCTYPE svg PUBLIC "-//W3C//DTD SVG 1.1//EN" "http://www.w3.org/Graphics/SVG/1.1/DTD/svg11.dtd"><svg t="1613540089643" class="icon" viewBox="0 0 1024 1024" version="1.1" xmlns="http://www.w3.org/2000/svg" p-id="21412" xmlns:xlink="http://www.w3.org/1999/xlink" width="200" height="200"><defs><style type="text/css"></style></defs><path d="M708.266667 653.397333l0.341333 366.165334-194.133333-127.445334-193.92 127.786667-0.341334-435.797333c14.122667 11.392 25.216 26.069333 32.298667 42.794666 31.274667 74.112 128.597333 91.306667 183.296 32.341334a110.848 110.848 0 0 1 138.453333-19.413334c10.453333 6.357333 22.016 10.965333 34.005334 13.568z" fill="#449EFE" p-id="21413"></path><path d="M510.250667 1.024a381.568 381.568 0 1 0 0 763.178667 381.568 381.568 0 0 0 0-763.178667z" fill="#E7EDF2" p-id="21414"></path><path d="M512.085333 98.005333a286.464 286.464 0 1 0-7.466666 572.842667 286.464 286.464 0 0 0 7.466666-572.842667z" fill="#AEC1CC" p-id="21415"></path><path d="M391.936 565.162667v-41.216c97.450667-87.296 155.136-154.666667 155.136-209.92 0-36.394667-19.882667-58.197333-53.802667-58.197334-26.197333 0-48 16.938667-65.92 36.821334l-38.826666-38.784c32.981333-34.901333 64.981333-54.272 113.92-54.272 67.925333 0 113.024 43.605333 113.024 110.506666 0 64.981333-53.845333 134.826667-119.296 198.826667 17.92-1.962667 41.685333-3.882667 58.197333-3.882667h78.08v60.117334H391.893333z" fill="#FFFFFF" p-id="21416"></path></svg>