<?xml version="1.0" standalone="no"?><!DOCTYPE svg PUBLIC "-//W3C//DTD SVG 1.1//EN" "http://www.w3.org/Graphics/SVG/1.1/DTD/svg11.dtd"><svg t="1613539999119" class="icon" viewBox="0 0 1024 1024" version="1.1" xmlns="http://www.w3.org/2000/svg" p-id="16393" xmlns:xlink="http://www.w3.org/1999/xlink" width="200" height="200"><defs><style type="text/css"></style></defs><path d="M511.708 970.368l-123.716 52.431H354.4V734.4h314.616v288.398h-35.23l-122.078-52.43z m0 0" fill="#63BBD2" p-id="16394"></path><path d="M511.708 0.286c-217.116 0-393.274 176.158-393.274 393.274 0 217.126 176.158 393.274 393.274 393.274 217.121 0 393.272-176.147 393.272-393.274C904.98 176.444 728.835 0.286 511.708 0.286z m0 734.114c-188.443 0-340.836-152.398-340.836-340.84 0-188.442 152.393-340.837 340.836-340.837 188.441 0 340.839 152.395 340.839 340.837 0 188.442-152.398 340.84-340.839 340.84z m0 0" fill="#37B0D5" p-id="16395"></path><path d="M519.972 359.935c-22.149 0-39.246 5.496-51.29 16.486-12.379 11.237-18.562 25.278-18.562 42.131v0.366c0.321 25.891 5.533 47.993 15.631 66.31 9.769 14.9 25.4 22.348 46.894 22.348 16.279 0 29.957-6.595 41.031-19.784 11.395-12.943 17.097-32.359 17.097-58.25 0-20.516-4.565-37.122-13.677-49.824-9.771-13.189-22.151-19.783-37.124-19.783z" fill="#37B0D5" p-id="16396"></path><path d="M511.708 105.161c-158.949 0-288.399 129.451-288.399 288.399 0 158.949 129.451 288.404 288.399 288.404 158.947 0 288.404-129.455 288.404-288.404 0-158.948-129.457-288.399-288.404-288.399z m75.185 398.019c-18.891 22.713-43.644 34.07-74.248 34.07-35.499 0-62.204-12.077-80.109-36.223-18.242-26.835-27.354-62.692-27.354-107.583 0.32-50.247 12.371-89.401 36.146-117.456 25.722-29.514 57.8-44.277 96.229-44.277 23.446 0 42.168 3.835 56.174 11.5l-14.166 25.501c-13.357-4.882-27.354-7.447-42.008-7.693-27.354 0-49.503 11.54-66.432 34.621-10.098 12.771-16.608 32.491-19.54 59.166a163.14 163.14 0 0 1 7.328-5.862c17.906-12.456 38.261-18.684 61.059-18.684 27.354 0 49.335 8.552 65.943 25.645 17.257 17.585 25.89 42.13 25.89 73.637 0 29.801-8.305 54.347-24.912 73.638z" fill="#37B0D5" p-id="16397"></path></svg>