<?xml version="1.0" standalone="no"?><!DOCTYPE svg PUBLIC "-//W3C//DTD SVG 1.1//EN" "http://www.w3.org/Graphics/SVG/1.1/DTD/svg11.dtd"><svg t="1613540034859" class="icon" viewBox="0 0 1024 1024" version="1.1" xmlns="http://www.w3.org/2000/svg" p-id="17092" xmlns:xlink="http://www.w3.org/1999/xlink" width="200" height="200"><defs><style type="text/css"></style></defs><path d="M512 947.2l-120.832 51.2h-32.768V716.8h307.2v281.6h-34.4064l-119.1936-51.2z" fill="#77E06C" p-id="17093"></path><path d="M512 102.4c-155.2384 0-281.6 126.3616-281.6 281.6S356.7616 665.6 512 665.6s281.6-126.3616 281.6-281.6S667.2384 102.4 512 102.4z" fill="#6DCE65" p-id="17094"></path><path d="M512 0C300.032 0 128 172.032 128 384S300.032 768 512 768s384-172.032 384-384S723.968 0 512 0z m0 716.8c-183.9104 0-332.8-148.8896-332.8-332.8S328.0896 51.2 512 51.2s332.8 148.8896 332.8 332.8S695.9104 716.8 512 716.8z" fill="#6DCE65" p-id="17095"></path><path d="M569.7536 451.1744l-6.144 70.656-28.8768-2.2528 5.7344-68.1984-138.8544 2.8672-14.1312-19.8656 73.5232-185.5488 27.0336 10.4448-65.3312 165.888 120.0128-2.4576 11.8784-143.1552 29.2864 2.4576-11.8784 139.8784 58.7776-1.4336 1.024 29.2864-62.0544 1.4336z" fill="#FFFFFF" p-id="17096"></path></svg>