<?xml version="1.0" standalone="no"?><!DOCTYPE svg PUBLIC "-//W3C//DTD SVG 1.1//EN" "http://www.w3.org/Graphics/SVG/1.1/DTD/svg11.dtd"><svg t="1613540073912" class="icon" viewBox="0 0 1024 1024" version="1.1" xmlns="http://www.w3.org/2000/svg" p-id="19727" xmlns:xlink="http://www.w3.org/1999/xlink" width="200" height="200"><defs><style type="text/css"></style></defs><path d="M290.645 684.1V1024L496.23 857.77 700.245 1024V684.1z" fill="#EE736D" p-id="19728"></path><path d="M119.979 375.467C119.979 168.107 288.085 0 495.445 0s375.467 168.107 375.467 375.467a375.433 375.433 0 0 1-563.2 325.188 375.398 375.398 0 0 1-187.733-325.188z m275.797 92.023v66.526c22.699 12.288 52.668 18.432 89.839 18.432 41.847 0 75.332-9.66 100.454-28.945s37.684-46.114 37.684-80.486c0-22.426-7.544-41.438-22.63-57.071-15.088-15.633-35.26-24.85-60.417-27.648v-1.16c47.89-12.152 71.85-41.848 71.85-89.123 0-27.99-10.683-49.903-31.982-65.707-21.3-15.77-49.084-23.688-83.285-23.688-33.792 0-63.079 6.485-87.962 19.387v62.294c22.87-15.872 46.421-23.791 70.656-23.791 37.205 0 55.808 15.36 55.808 46.182 0 32.666-24.269 49.016-72.806 49.016h-29.662v58.095h32.187c25.669 0 45.603 4.505 59.836 13.516 14.234 9.046 21.368 22.119 21.368 39.22 0 16.623-6.008 29.457-17.955 38.502-11.98 9.011-28.16 13.517-48.537 13.517-32.222 0-60.382-9.011-84.48-27.068z" fill="#FFD69C" p-id="19729"></path><path d="M495.445 102.4a273.067 273.067 0 0 1 273.067 273.067c0 150.835-122.197 273.066-273.067 273.066A273.067 273.067 0 0 1 222.38 375.467 273.067 273.067 0 0 1 495.445 102.4z m-99.669 365.09v66.526c22.699 12.288 52.668 18.432 89.839 18.432 41.847 0 75.332-9.66 100.454-28.945s37.684-46.114 37.684-80.486c0-22.426-7.544-41.438-22.63-57.071-15.088-15.633-35.26-24.85-60.417-27.648v-1.16c47.89-12.152 71.85-41.848 71.85-89.123 0-27.99-10.683-49.903-31.982-65.707-21.3-15.77-49.084-23.688-83.285-23.688-33.792 0-63.079 6.485-87.962 19.387v62.294c22.87-15.872 46.421-23.791 70.656-23.791 37.205 0 55.808 15.36 55.808 46.182 0 32.666-24.269 49.016-72.806 49.016h-29.662v58.095h32.187c25.669 0 45.603 4.505 59.836 13.516 14.234 9.046 21.368 22.119 21.368 39.22 0 16.623-6.008 29.457-17.955 38.502-11.98 9.011-28.16 13.517-48.537 13.517-32.222 0-60.382-9.011-84.48-27.068z" fill="#FFBB17" p-id="19730"></path></svg>