<?xml version="1.0" standalone="no"?><!DOCTYPE svg PUBLIC "-//W3C//DTD SVG 1.1//EN" "http://www.w3.org/Graphics/SVG/1.1/DTD/svg11.dtd"><svg t="1613540021467" class="icon" viewBox="0 0 1024 1024" version="1.1" xmlns="http://www.w3.org/2000/svg" p-id="16683" xmlns:xlink="http://www.w3.org/1999/xlink" width="200" height="200"><defs><style type="text/css"></style></defs><path d="M512 947.2l-120.832 51.2h-32.768V716.8h307.2v281.6h-34.4064l-119.1936-51.2z" fill="#4ACE9B" p-id="16684"></path><path d="M512 768c-211.968 0-384-172.032-384-384S300.032 0 512 0s384 172.032 384 384S723.968 768 512 768z m0-716.8C328.0896 51.2 179.2 200.0896 179.2 384S328.0896 716.8 512 716.8s332.8-148.8896 332.8-332.8S695.9104 51.2 512 51.2z m0 614.4c-155.2384 0-281.6-126.3616-281.6-281.6S356.7616 102.4 512 102.4s281.6 126.3616 281.6 281.6S667.2384 665.6 512 665.6z" fill="#42C193" p-id="16685"></path><path d="M561.152 521.6256l-171.8272-37.6832 6.3488-27.8528 159.5392 35.2256 33.3824-84.3776-136.192-14.336-12.288-16.7936 19.456-104.448 14.1312-11.6736h135.168v28.2624h-123.2896l-14.7456 78.2336 139.6736 14.7456 11.264 19.456-44.4416 113.0496-16.1792 8.192z" fill="#FFFFFF" p-id="16686"></path></svg>